<?xml version="1.0" encoding="UTF-8" standalone="no"?>
<!-- Generator: Adobe Illustrator 19.2.1, SVG Export Plug-In . SVG Version: 6.00 Build 0)  -->

<svg
   xmlns:dc="http://purl.org/dc/elements/1.1/"
   xmlns:cc="http://creativecommons.org/ns#"
   xmlns:rdf="http://www.w3.org/1999/02/22-rdf-syntax-ns#"
   xmlns:svg="http://www.w3.org/2000/svg"
   xmlns="http://www.w3.org/2000/svg"
   xmlns:sodipodi="http://sodipodi.sourceforge.net/DTD/sodipodi-0.dtd"
   xmlns:inkscape="http://www.inkscape.org/namespaces/inkscape"
   version="1.1"
   id="layer"
   x="0px"
   y="0px"
   viewBox="0 0 500 118"
   xml:space="preserve"
   inkscape:version="0.48.1 "
   width="100%"
   height="100%"
   sodipodi:docname="northwestern-st-paul-vector-logo.svg"><metadata
   id="metadata3171"><rdf:RDF><cc:Work
       rdf:about=""><dc:format>image/svg+xml</dc:format><dc:type
         rdf:resource="http://purl.org/dc/dcmitype/StillImage" /></cc:Work></rdf:RDF></metadata><defs
   id="defs3169" /><sodipodi:namedview
   pagecolor="#ffffff"
   bordercolor="#666666"
   borderopacity="1"
   objecttolerance="10"
   gridtolerance="10"
   guidetolerance="10"
   inkscape:pageopacity="0"
   inkscape:pageshadow="2"
   inkscape:window-width="1366"
   inkscape:window-height="705"
   id="namedview3167"
   showgrid="false"
   inkscape:zoom="1.8034941"
   inkscape:cx="273.85984"
   inkscape:cy="71.489517"
   inkscape:window-x="-8"
   inkscape:window-y="-8"
   inkscape:window-maximized="1"
   inkscape:current-layer="layer" />
<style
   type="text/css"
   id="style3157">
	.st0{fill:#331E54;}
	.st1{fill:#ECAC00;}
	.st2{fill:#FFFFFF;}
</style>



<g
   id="g3173"
   transform="matrix(0.82026397,0,0,0.82026397,-14.325682,-203.97663)"><path
     id="path3159"
     d="m 187.9,385.7 c -2.2,0 -4.5,-0.1 -6.6,-0.8 l -0.4,-4.3 c 1.7,1 4,1.7 6.8,1.7 1.9,0 3.3,-1.1 3.3,-2.3 0,-1.2 -0.8,-1.8 -2.3,-2.3 l -3,-1.3 c -3.2,-1.4 -4.5,-3.1 -4.5,-5.3 0,-3.7 3.6,-6 8.4,-6 2,0 4.4,0.6 5.7,1.2 l 0,4 c -2.3,-1.6 -3.8,-1.9 -5.7,-1.9 -2.1,0 -3.6,0.9 -3.6,2.2 0,1.1 1,1.9 2.4,2.5 l 3.5,1.4 c 2.1,0.9 4,2.6 4,5.1 0,3.7 -3.5,6.1 -8,6.1 m 96.1,-19.9 0,11.9 c 0,3.1 -2.4,3.7 -4.4,3.7 -3.2,0 -4.7,-1.2 -4.7,-3.8 l 0,-11.9 -1.1,0 -3.8,0 -2.4,0 2.4,2.5 0,9.2 c 0,3.6 0.8,5.2 3.1,6.6 1.7,1 3.5,1.4 6.3,1.4 2.7,0 4.6,-0.4 6.3,-1.4 2.4,-1.4 3.2,-3.1 3.2,-6.6 l 0,-11.7 -4.9,0.1 z m -46.3,12.1 c 0,0 3.1,0.5 6.8,-1.2 1.8,-0.8 4.1,-2.6 4.1,-5.3 0,-4 -4,-5.8 -8.7,-5.8 -2.9,0 -4.6,0.3 -7,0.6 l -0.1,19.2 4.8,0 0.1,-7.5 m 1.6,-9.1 c 3.6,0 4.5,1.2 4.5,2.8 0,1.5 -0.8,2.7 -2.1,3.1 -1,0.3 -4,0.3 -4,0.3 l 0,-6.2 1.6,0 m -20.7,19.4 c 1.8,0 3.2,-1.4 3.2,-3.2 0,-1.8 -1.4,-3.2 -3.2,-3.2 -1.8,0 -3.2,1.4 -3.2,3.2 0,1.7 1.4,3.2 3.2,3.2 m 87.9,-6 -7.8,0 v -16.5 h -4.9 v 19.8 h 11.3 l 1.4,-3.3 z m -38.2,3.3 -7.9,-19.7 h -4.9 l 0.5,1 -8.1,18.7 h 3.8 l 1.5,-3.8 h 8.8 l 1.6,3.8 4.7,0 z m -7.6,-6.9 h -6.3 l 3.2,-7.8 3.1,7.8 z m 68.1,1.9 h 293.5 v -6.4 H 328.8 v 6.4 z m 94.9,-116.4 h -8.2 v 32.5 h 8.2 v -32.5 z m 89.9,26.8 c 6.8,0 11.3,-4.1 11.3,-10.2 0,-6.2 -4.5,-10.3 -11.3,-10.3 -6.8,0 -11.3,4 -11.3,10.2 0,6.2 4.5,10.3 11.3,10.3 m 0,-17 c 3.9,0 6.2,2.7 6.2,6.7 0,4 -2.3,6.7 -6.2,6.7 -4,0 -6.2,-2.7 -6.2,-6.7 0,-4 2.3,-6.7 6.2,-6.7 m 21.5,7.9 h 6.1 l 1.6,-3.3 h -7.6 l 0,-4.7 7.6,0 1.3,-3.4 h -13.8 v 20.5 h 4.8 l 0,-9.1 z m -166.3,14.8 h 9.8 l -11.2,-14.3 c 3,-1.4 6.8,-4.3 6.8,-8.8 0,-6.6 -6.6,-9.6 -14.4,-9.7 -4.8,0 -7.6,0.5 -11.6,1.1 v 31.7 h 8 v -12.3 l 4.3,0 8.3,12.3 z m -10.1,-27.4 c 6,0 7.4,2 7.4,4.6 0,2.6 -1.2,4.4 -3.1,5.6 l -7,0 v -10.3 l 2.7,0.1 m -18.8,27.3 2.4,-5.6 h -15.5 l 0,-8 h 10.9 l 2.2,-5.4 h -13.1 v -7.8 h 13.1 l 2.4,-5.6 h -23.4 v 32.4 h 21 z m 53.6,0.6 c 7.4,0 13.1,-4 13.1,-9.9 0,-4.1 -3.2,-6.9 -6.6,-8.2 l -5.7,-2.2 c -2.2,-0.8 -3.9,-2.2 -3.9,-4 0,-2.2 2.4,-3.6 5.8,-3.6 3,0 5.4,0.4 9.3,3 l 0,-6.6 c -2,-0.9 -6,-1.8 -9.3,-1.8 -7.9,0 -13.7,3.8 -13.6,9.9 0,3.6 2.1,6.4 7.3,8.5 l 4.9,2 c 2.4,0.9 3.7,1.9 3.7,3.8 0,2 -2.4,3.8 -5.4,3.8 -4.6,0 -8.3,-1.1 -11.1,-2.7 l 0.8,6.9 c 3.4,1 7.2,1.1 10.7,1.1 m 63.8,-27.4 2.2,-5.6 h -29.3 l 0,5.6 h 9.9 v 26.9 l 8,0 0,-26.9 h 9.2 z m -252.8,-5.6 v 19.8 c 0,5.1 -4,6.2 -7.3,6.2 -5.3,0 -7.7,-2 -7.7,-6.2 l 0,-19.8 h -11.8 l 3.9,4.2 v 15.6 c 0,5.9 1.2,8.3 5,10.6 2.8,1.7 5.8,2.3 10.4,2.4 4.4,0 7.6,-0.7 10.3,-2.3 3.9,-2.3 5.3,-4.8 5.3,-10.7 v -19.8 h -8.1 z m 99.4,0 -8,20.2 -7.5,-20.2 h -8.6 l 13.3,32.5 5.4,0 13.7,-32.5 h -8.3 z m 180,0 -7.3,11.7 -6.8,-11.7 h -8.9 l 11.3,18.8 v 13.7 l 8.1,0 V 282.9 L 493,264.1 h -9.1 z m -233.7,32.5 4.2,0 -0.1,-32.5 h -7 l 0,18.7 -17.1,-18.7 h -9.9 l 3.8,4.3 0,28.3 h 7 v -20.8 l 19.1,20.7 z M 274,264.1 h -8.2 v 32.5 h 8.2 v -32.5 z m 175.5,85.6 2.4,-5.6 h -15.5 v -8 l 10.9,0 2.2,-5.4 h -13.1 v -7.8 h 13.1 l 2.4,-5.6 h -23.4 v 32.4 h 21 z m -93,-32.5 V 330 h -14.8 v -12.7 h -7.8 v 32.5 h 7.8 v -14 h 14.8 v 14 h 7.8 v -32.5 h -7.8 z m -30.9,5.6 2.2,-5.6 h -29.3 l 0,5.6 h 9.9 v 26.9 l 8,0 0,-26.9 h 9.2 z m -39.1,26.9 h 9.8 L 285,335.4 c 3,-1.4 6.8,-4.3 6.8,-8.8 0,-6.6 -6.6,-9.6 -14.4,-9.7 -4.8,0 -7.6,0.5 -11.6,1.1 v 31.7 h 8 v -12.3 l 4.3,0 8.4,12.3 z m -10,-27.4 c 6,0 7.4,2 7.4,4.6 0,2.6 -1.2,4.4 -3.1,5.6 l -7,0 v -10.3 l 2.7,0.1 m -69,27.4 4.2,0 v -32.5 h -7.1 l 0,18.7 -17.1,-18.7 h -9.9 l 3.8,4.3 v 28.2 l 7,0 v -20.8 l 19.1,20.8 z m 31.3,0.7 c 11.1,0 18.5,-6.7 18.5,-16.8 0,-10.1 -7.4,-16.8 -18.5,-16.8 -11.2,0 -18.5,6.7 -18.5,16.8 0,10.2 7.4,16.9 18.5,16.8 m 0,-27.8 c 6.4,0 10.2,4.4 10.2,11 0,6.6 -3.8,11 -10.2,11 -6.5,0 -10.2,-4.4 -10.2,-11 0,-6.5 3.7,-11 10.2,-11 M 422,317.3 h -7.5 l -8.1,21.9 -7.9,-21.9 h -8.3 l 3.1,8.5 -6.7,13.2 -7.6,-21.7 -8.3,0 11.3,32.4 h 6 l 8.2,-16.2 5.9,16.1 h 6.8 L 422,317.3 z m 122.1,32.4 2.4,-5.6 H 531 v -8 l 10.9,0 2.2,-5.4 H 531 v -7.8 h 13.1 l 2.4,-5.6 H 523 v 32.4 h 21.1 z m -75,0.5 c 7.4,0 13.1,-4 13.1,-9.9 0,-4.1 -3.2,-6.9 -6.6,-8.2 l -5.7,-2.2 c -2.2,-0.8 -3.9,-2.2 -3.9,-4 0,-2.2 2.4,-3.6 5.8,-3.6 3,0 5.4,0.4 9.3,3 l 0,-6.6 c -2,-0.9 -6,-1.8 -9.3,-1.8 -7.9,0 -13.7,3.8 -13.6,9.9 0,3.6 2.1,6.4 7.3,8.5 l 4.9,2 c 2.4,0.9 3.7,1.9 3.7,3.8 0,2 -2.4,3.8 -5.4,3.8 -4.6,0 -8.3,-1.1 -11.1,-2.7 l 0.8,6.9 c 3.4,1 7.2,1.1 10.7,1.1 m 46.9,-27.4 2.2,-5.6 h -29.3 l 0,5.6 h 9.9 v 26.9 l 8,0 0,-26.9 h 9.2 z m 59,26.9 h 9.8 l -11.2,-14.3 c 3,-1.4 6.8,-4.3 6.8,-8.8 0,-6.6 -6.6,-9.6 -14.4,-9.7 -4.8,0 -7.6,0.5 -11.6,1.1 v 31.7 h 8 v -12.3 l 4.3,0 8.3,12.3 z m -10,-27.4 c 6,0 7.4,2 7.4,4.6 0,2.6 -1.2,4.4 -3.1,5.6 l -7,0 v -10.3 l 2.7,0.1 m 53,27.4 h 4.2 l 0,-32.5 h -7 l 0,18.7 -17.2,-18.7 h -9.9 l 3.9,4.3 v 28.2 h 7 v -20.8 l 19,20.8 z m -403.1,19.4 1.3,-3.4 h -17.5 l 0,3.4 h 5.9 l 0,16.3 4.8,0 0,-16.3 h 5.5 z"
     class="st0"
     inkscape:connector-curvature="0"
     style="fill:#331e54" /><path
     id="path3161"
     d="m 77.8,253 -55.6,11.2 v 49.3 c -0.5,27 16.6,52.1 40,63.8 5.2,2.5 9.9,4.4 15.6,5.7 5.7,-1.3 10.5,-3.1 15.7,-5.6 23.5,-11.5 41.1,-37 40.9,-63.9 V 264.2 L 77.8,253 z"
     class="st0"
     inkscape:connector-curvature="0"
     style="fill:#331e54" /><path
     id="path3163"
     d="m 92,315.3 c -3.2,-2.6 -7.5,-4.3 -12.3,-4.7 0.2,-3.6 0.5,-7 0.7,-8.8 3.8,-0.4 7.9,-1 7.9,-1 l 0,-2.4 c 0,0 -4.5,-0.5 -8.4,-1 -0.4,-3.9 -0.9,-8.3 -0.9,-8.3 l -2.6,0 c 0,0 -0.5,4.3 -1,8.2 -3.9,0.5 -8.5,1 -8.5,1 l 0,2.4 c 0,0 4.2,0.5 8,1 0.2,1.8 0.4,5.2 0.7,8.8 -4.7,0.4 -9,2 -12.2,4.6 l -20.8,-16.4 1.5,-2.6 c 0,0 12.4,3.2 13.5,3.6 0.5,-0.5 1.4,-1.4 1.8,-2 -0.5,-1 -7,-20.7 -7,-20.7 l 2.7,-1.6 c 0,0 12.7,15.1 13.5,16.2 1.1,-0.4 2.2,-0.7 3.4,-1 l 4.2,-27.4 3,0 4.3,27.5 c 1.2,0.3 2.4,0.6 3.4,1 0.7,-1 13.7,-16.3 13.7,-16.3 l 2.6,1.6 c 0,0 -6.7,19.6 -7.2,20.6 0.5,0.5 1.4,1.6 1.9,2.1 1.1,-0.4 13.4,-3.8 13.4,-3.8 l 1.5,2.7 -20.8,16.7 z"
     class="st1"
     inkscape:connector-curvature="0"
     style="fill:#ecac00" /><path
     id="path3165"
     d="m 102.9,326.2 -1.3,0 c -3.9,0 -5.1,1.6 -5.1,5.9 l 0,26.1 h -4 l -26.7,-21.1 0,11.8 c 0,4.3 1.2,5.9 5.1,5.9 l 1.2,0 0,3.4 -19.2,0 v -3.4 l 1.2,0 c 4,0 5.1,-1.5 5.1,-5.9 l 0,-17 -11.5,-9.1 11.5,0 30.6,24.3 0,-15 c 0,-4.3 -1.1,-5.9 -5.1,-5.9 l -1.2,0 0,-3.4 19.3,0 v 3.4 z"
     class="st2"
     inkscape:connector-curvature="0"
     style="fill:#ffffff" /></g>
</svg>